<svg xmlns="http://www.w3.org/2000/svg" viewBox="0 0 920 180" fill="none">
  <defs>
    <style>
      .gold {
        stroke: #c9a46e;
        stroke-linecap: round;
        stroke-linejoin: round;
      }
    </style>
  </defs>

  <g transform="translate(10 16)">
    <circle class="gold" cx="58" cy="47" r="31" fill="#F0D4D5" stroke-width="5" />
    <path class="gold" d="M54 29c11-1 20 8 20 19 0 12-8 23-20 30" stroke-width="4" />
    <path class="gold" d="M52 39c4 0 7 2 9 5" stroke-width="3.5" />
    <path class="gold" d="M43 54c3-11 10-17 22-18" stroke-width="4" />
    <path class="gold" d="M31 82c-9-10-11-18-8-25 8 3 14 9 18 18" stroke-width="4" />
    <path class="gold" d="M85 82c9-10 11-18 8-25-8 3-14 9-18 18" stroke-width="4" />
    <path class="gold" d="M44 93c-7-2-13-8-16-17 10 2 19 8 24 17" stroke-width="4" />
    <path class="gold" d="M72 93c7-2 13-8 16-17-10 2-19 8-24 17" stroke-width="4" />
  </g>

  <g class="gold" transform="translate(125 18)" stroke-width="4.5">
    <path d="M54 21C44 7 15 7 7 24c-9 21 11 31 32 37 21 6 36 12 34 30-2 17-17 28-35 28-13 0-25-5-36-15" />
    <path d="M110 117 147 14l37 103" />
    <path d="M125 73h42" />
    <path d="M219 14v103h44" />
    <ellipse cx="348" cy="66" rx="34" ry="52" />
    <path d="M436 117V14" />
    <path d="M436 14h32c22 0 38 15 38 35s-16 35-38 35h-32" />
    <path d="M471 83 510 117" />
    <path d="M555 14v103" />
    <path d="M621 117 658 14l37 103" />
    <path d="M636 73h42" />
  </g>
</svg>
